<?xml version="1.0" encoding="UTF-8" standalone="no"?>
<!-- Created with Inkscape (http://www.inkscape.org/) -->

<svg
   width="300"
   height="300"
   viewBox="0 0 300 300"
   version="1.1"
   id="svg1"
   xml:space="preserve"
   xmlns:xlink="http://www.w3.org/1999/xlink"
   xmlns="http://www.w3.org/2000/svg"
   xmlns:svg="http://www.w3.org/2000/svg"><defs
     id="defs1" /><g
     id="layer2"
     style="display:inline;opacity:1"
     transform="translate(228.75446,190)"><path
       style="fill:#f5edc7;fill-opacity:1;stroke:none;stroke-width:2;stroke-linecap:round;stroke-dasharray:none;stroke-opacity:1"
       d="M 59.184444,-56.316406 C 39.307209,-96.285218 -62.36568,-208.89255 -172.36568,-118.89255 -282.36568,-28.89255 -170,-60 -170,50 -170,110.82763 98.633339,23.006771 59.184444,-56.316406 Z"
       id="path69" /><g
       id="g23"><path
         style="fill:#000000;fill-opacity:0;stroke:#919ca1;stroke-width:2;stroke-opacity:1"
         d="m -140,20 v 85"
         id="path21" /><path
         style="fill:#000000;fill-opacity:0;stroke:#919ca1;stroke-width:2;stroke-opacity:1"
         d="m -140,60 -50,40"
         id="path22" /><path
         style="fill:#000000;fill-opacity:0;stroke:#919ca1;stroke-width:2;stroke-opacity:1"
         d="m -140,60 50,40"
         id="path23" /><rect
         style="fill:#edfbfc;fill-opacity:1;stroke-width:2;stroke-opacity:0.501944"
         id="rect17"
         width="130"
         height="210"
         x="-205"
         y="-185" /><rect
         style="fill:#b6bec1;fill-opacity:1;stroke-width:2;stroke-opacity:0.501944"
         id="rect18"
         width="130"
         height="3"
         x="-205"
         y="-185" /><use
         x="0"
         y="0"
         xlink:href="#rect18"
         id="use18"
         transform="translate(0,207)" /></g><g
       id="g30"
       transform="translate(10,-7.5)"><rect
         style="fill:#fbb200;fill-opacity:1;stroke:none;stroke-width:1;stroke-dasharray:none;stroke-opacity:1"
         id="rect23"
         width="20"
         height="10"
         x="-175"
         y="-40" /><rect
         style="fill:#ff77fe;fill-opacity:1;stroke:none;stroke-width:1;stroke-dasharray:none;stroke-opacity:1"
         id="rect24"
         width="20"
         height="10"
         x="-205"
         y="-14" /><rect
         style="opacity:1;fill:#79acff;fill-opacity:1;stroke:none;stroke-width:1;stroke-dasharray:none;stroke-opacity:1"
         id="rect24-5"
         width="20"
         height="10"
         x="-175"
         y="10" /><rect
         style="fill:#ff77fe;fill-opacity:1;stroke:none;stroke-width:1;stroke-dasharray:none;stroke-opacity:1"
         id="rect25"
         width="20"
         height="10"
         x="-145"
         y="-14" /><path
         style="fill:#fe0000;fill-opacity:1;stroke:none;stroke-width:1;stroke-dasharray:none;stroke-opacity:1"
         d="m -165,-25 -10,5 10,5 10,-5 z"
         id="path25" /><path
         style="fill:#000000;fill-opacity:0;stroke:#5c5c5c;stroke-width:1;stroke-dasharray:none;stroke-opacity:1"
         d="m -165,-30 v 5.5"
         id="path26" /><path
         style="fill:#000000;fill-opacity:0;stroke:#5c5c5c;stroke-width:1;stroke-dasharray:none;stroke-opacity:1"
         d="m -174,-20 h -21 v 6"
         id="path27" /><path
         style="fill:#000000;fill-opacity:0;stroke:#5c5c5c;stroke-width:1;stroke-dasharray:none;stroke-opacity:1"
         d="m -156,-20 h 21 v 6"
         id="path28" /><path
         style="fill:#000000;fill-opacity:0;stroke:#5c5c5c;stroke-width:1;stroke-dasharray:none;stroke-opacity:1"
         d="m -195,-4 v 4 h 60 v -4"
         id="path29" /><path
         style="fill:#000000;fill-opacity:0;stroke:#5c5c5c;stroke-width:1;stroke-dasharray:none;stroke-opacity:1"
         d="M -165,0 V 10"
         id="path30" /></g><g
       id="g36"
       transform="matrix(1.6487576,0,0,1.6487576,204.14205,205.23506)"
       style="stroke:#898989;stroke-opacity:1"><ellipse
         style="fill:#79acff;fill-opacity:1;stroke:#898989;stroke-width:1;stroke-dasharray:none;stroke-opacity:1"
         id="path36"
         cx="-187.5"
         cy="-176"
         rx="7.5"
         ry="3" /><path
         id="path33"
         style="fill:none;fill-opacity:1;stroke:#898989;stroke-width:1;stroke-dasharray:none;stroke-opacity:1"
         d="m -180,-176 v 12.76945 c 0,1.4263 -3.35786,2.76945 -7.5,2.76945 -4.14214,0 -7.5,-1.34315 -7.5,-2.76945 V -176 m 15,0 c 0,1.65685 -3.35786,3 -7.5,3 -4.14214,0 -7.5,-1.34315 -7.5,-3 0,-1.65685 3.35786,-3 7.5,-3 4.14214,0 7.5,1.34315 7.5,3 z m -15,8.26945 c 0,1.65685 3.35786,3 7.5,3 4.14214,0 7.5,-1.34315 7.5,-3 M -195,-172 c 0,1.65685 3.35786,3 7.5,3 4.14214,0 7.5,-1.34315 7.5,-3" /></g><g
       id="g42"
       transform="matrix(1.1,0,0,1.1,23,-24.5)"><path
         style="fill:none;fill-opacity:1;stroke:#13d300;stroke-width:1;stroke-dasharray:none;stroke-opacity:1"
         d="m -170,-120 -20,30 h 40 z"
         id="path41" /><path
         style="fill:none;fill-opacity:1;stroke:#13d300;stroke-width:1;stroke-dasharray:none;stroke-opacity:1"
         d="m -180,-105 10,15 10,-15 z"
         id="path42" /><circle
         style="fill:#92ff73;fill-opacity:1;stroke:none;stroke-width:1;stroke-dasharray:none;stroke-opacity:1"
         id="path37"
         cx="-170"
         cy="-120"
         r="5" /><circle
         style="fill:#92ff73;fill-opacity:1;stroke:none;stroke-width:1;stroke-dasharray:none;stroke-opacity:1"
         id="path38"
         cx="-180"
         cy="-105"
         r="5" /><circle
         style="fill:#92ff73;fill-opacity:1;stroke:none;stroke-width:1;stroke-dasharray:none;stroke-opacity:1"
         id="path39"
         cx="-160"
         cy="-105"
         r="5" /><circle
         style="fill:#92ff73;fill-opacity:1;stroke:none;stroke-width:1;stroke-dasharray:none;stroke-opacity:1"
         id="circle39"
         cx="-190"
         cy="-90"
         r="5" /><circle
         style="fill:#92ff73;fill-opacity:1;stroke:none;stroke-width:1;stroke-dasharray:none;stroke-opacity:1"
         id="circle40"
         cx="-170"
         cy="-90"
         r="5" /><circle
         style="fill:#92ff73;fill-opacity:1;stroke:none;stroke-width:1;stroke-dasharray:none;stroke-opacity:1"
         id="circle41"
         cx="-150"
         cy="-90"
         r="5" /></g><g
       id="g17"><path
         style="fill:#202428;fill-opacity:1;stroke-width:2;stroke-opacity:0.501944"
         d="m -29.320406,93.583354 c 0,0 2.614421,5.493265 1.93355,7.115616 -0.680871,1.62235 -21.349945,1.1207 -21.666157,0.58493 -0.316212,-0.53577 9.713806,-7.154752 19.732607,-7.700546 z"
         id="path16" /><path
         style="fill:#202428;fill-opacity:1;stroke-width:2;stroke-opacity:0.501944"
         d="m 12.345801,93.583354 c 0,0 -2.6144212,5.493265 -1.93355,7.115616 0.680871,1.62235 21.349944,1.1207 21.666156,0.58493 0.316212,-0.53577 -9.713806,-7.154752 -19.732606,-7.700546 z"
         id="path17" /><path
         style="display:inline;fill:#364e61;fill-opacity:1;stroke-width:2;stroke-opacity:0.501944"
         d="m -42.280386,-45.242314 5.280435,140.321292 8.544416,-0.07923 c 0,0 6.045382,-123.736664 6.784963,-124.404634 1.152535,-1.04094 5.152114,-0.898878 5.496488,-0.09761 0.344373,0.80127 27.274332,124.887306 27.274332,124.887306 L 20.577073,95.001298 1.6466785,-44.789385 Z"
         id="path15" /><path
         style="fill:#fbb37e;fill-opacity:1;stroke-width:2;stroke-opacity:0.501944"
         d="m -103.57132,-112.42808 c 0,0 -15.1647,-6.81993 -9.28674,-14.54099 5.87796,-7.72106 15.2457,8.84191 15.2457,8.84191 z"
         id="path14" /><path
         style="fill:#56cccd;fill-opacity:1;stroke-width:2;stroke-opacity:0.501944"
         d="m -1.9544815,-123.29366 c -8.6262695,-1.16947 -28.0395195,-1.34921 -34.4300595,-0.96627 -3.832493,0.22966 -10.278325,2.54376 -22.777084,13.40765 -12.498758,10.863897 -12.091884,11.546795 -13.169035,11.285114 -1.07715,-0.26168 -27.106243,-23.350514 -28.03235,-23.240154 -0.92611,0.11037 -7.36297,6.80272 -7.41596,7.76562 -0.053,0.96289 28.909179,31.842755 34.603534,31.951431 5.694356,0.108676 23.572579,-13.005014 29.570013,-19.395981 1.118823,9.834175 1.325037,57.243936 1.325037,57.243936 l 43.9270645,0.452929 1.644316,-54.411941 c 0,0 15.3412115,11.27396 21.6545475,15.056359 -5.631242,6.694377 -22.1330417,26.392892 -22.3478274,27.78351 -0.2147858,1.390619 4.321251,7.943971 5.3746559,8.171167 C 9.0257754,-47.963094 40.565873,-77.604963 40.978261,-86.923324 41.39065,-96.241685 7.2529164,-122.0454 -1.9544815,-123.29366 Z"
         id="path6" /><path
         id="path11"
         style="display:inline;fill:#fbb37e;stroke-width:2;stroke-opacity:0.501944"
         d="m 2.6054688,-56.316406 c -0.2071859,0.09369 -0.4157231,0.185317 -0.6191407,0.28125 -6.4607928,3.046946 -10.9220578,7.195999 -6.4667969,11.015625 0.077773,0.06668 0.1530265,0.106927 0.2304688,0.169922 4.31096703,3.506718 5.04657232,4.380656 11.6757812,-3.703125 -1.5588658,-1.417402 -4.9443977,-6.490944 -4.8203124,-7.763672 z" /><path
         style="fill:#fbb37e;fill-opacity:1;stroke-width:2;stroke-opacity:0.501944"
         d="m -39,-165 c 0,0 0,16.66667 0,25 0,9 10,9 10,9 0,0 1,0 1,1 0,2 0,4 0,6 0,10 16,10 16,0 0,-5.33333 0,-10 0,-15 0,-4 5,-1 5,-1 l 3,-10 -11,-15 z"
         id="path3" /><path
         style="display:inline;fill:#203950;fill-opacity:1;stroke-width:2;stroke-opacity:0.501944"
         d="m -39.729873,-171.06219 c 3.877912,-10.55237 12.365107,-6.27553 14.100549,-4.0713 4.231616,-4.17221 6.852329,-1.61833 7.642762,-0.51165 7.832101,-3.80063 8.8783611,3.92583 8.405519,5.48375 7.9471896,0.2565 8.4767323,6.83782 7.7875506,8.17973 3.4165457,3.87251 1.50458959,7.08959 0.1289262,7.8942 1.6024656,3.10537 0.6635315,5.70212 -0.9510842,6.90903 -0.6591439,11.64758 -7.6859626,7.10411 -8.1716296,6.13142 -0.485667,-0.97268 -0.347966,-3.10165 0.8687337,-3.10165 1.2166993,0 5.1172247,0.5265 4.8148217,-4.44256 -0.3024029,-4.96906 -4.2879791,-5.54349 -4.4212929,-4.22925 -0.1333138,1.31424 -0.2885653,3.95452 -1.8198175,3.95959 -1.531253,0.005 -1.49919,-6.17125 -1.00846,-8.43016 0.49073,-2.25891 -5.325127,2.96125 -7.110182,-4.14825 -6.936704,1.00407 -4.43108,-0.92105 -6.135809,-2.0797 -2.921766,2.3011 -5.771981,3.01256 -7.802738,1.52687 -9.22059,7.76055 -14.925408,-6.08181 -6.327849,-9.07007 z"
         id="path2" /><path
         style="fill:#ffffff;fill-opacity:1;stroke-width:2;stroke-opacity:0.501944"
         d="m -35,-141 c 0,6 10,6 10,0 z"
         id="path4" /><use
         x="0"
         y="0"
         xlink:href="#path5"
         id="use5"
         transform="translate(10)" /><circle
         style="fill:#3f992a;fill-opacity:1;stroke-width:2;stroke-opacity:0.501944"
         id="path5"
         cx="-35"
         cy="-150"
         r="2" /></g><g
       id="g55"
       style="stroke:#898989;stroke-opacity:1"><path
         style="fill:none;fill-opacity:1;stroke:#898989;stroke-width:2;stroke-linecap:round;stroke-dasharray:none;stroke-opacity:1"
         d="m -189,-84 c -3.04259,0 20,0 20,0"
         id="path43" /><path
         style="fill:none;fill-opacity:1;stroke:#898989;stroke-width:2;stroke-linecap:round;stroke-dasharray:none;stroke-opacity:1"
         d="m -164,-84 h 5"
         id="path44" /><path
         style="fill:none;fill-opacity:1;stroke:#898989;stroke-width:2;stroke-linecap:round;stroke-dasharray:none;stroke-opacity:1"
         d="m -154,-84 h 15"
         id="path45" /><path
         style="fill:none;fill-opacity:1;stroke:#898989;stroke-width:2;stroke-linecap:round;stroke-dasharray:none;stroke-opacity:1"
         d="m -189,-79 h 5"
         id="path46" /><path
         style="fill:none;fill-opacity:1;stroke:#898989;stroke-width:2;stroke-linecap:round;stroke-dasharray:none;stroke-opacity:1"
         d="m -179,-79 h 15"
         id="path47" /><path
         style="fill:none;fill-opacity:1;stroke:#898989;stroke-width:2;stroke-linecap:round;stroke-dasharray:none;stroke-opacity:1"
         d="m -159,-79 h 10.2444"
         id="path48" /><path
         style="fill:none;fill-opacity:1;stroke:#898989;stroke-width:2;stroke-linecap:round;stroke-dasharray:none;stroke-opacity:1"
         d="m -144,-79 h 5"
         id="path49" /><path
         style="fill:none;fill-opacity:1;stroke:#898989;stroke-width:2;stroke-linecap:round;stroke-dasharray:none;stroke-opacity:1"
         d="m -189,-74 h 10"
         id="path50" /><path
         style="fill:none;fill-opacity:1;stroke:#898989;stroke-width:2;stroke-linecap:round;stroke-dasharray:none;stroke-opacity:1"
         d="m -174,-74 h 20"
         id="path51" /><path
         style="fill:none;fill-opacity:1;stroke:#898989;stroke-width:2;stroke-linecap:round;stroke-dasharray:none;stroke-opacity:1"
         d="M -148.92258,-74 H -139"
         id="path52" /><path
         style="fill:none;fill-opacity:1;stroke:#898989;stroke-width:2;stroke-linecap:round;stroke-dasharray:none;stroke-opacity:1"
         d="m -189,-69 h 5"
         id="path53" /><path
         style="fill:none;fill-opacity:1;stroke:#898989;stroke-width:2;stroke-linecap:round;stroke-dasharray:none;stroke-opacity:1"
         d="m -179,-69 h 20"
         id="path54" /><path
         style="fill:none;fill-opacity:1;stroke:#898989;stroke-width:2;stroke-linecap:round;stroke-dasharray:none;stroke-opacity:1"
         d="M -153.8778,-69 H -139"
         id="path55" /></g><g
       id="g68"
       transform="matrix(-1,0,0,1,-274,-66)"
       style="stroke:#898989;stroke-opacity:1"><path
         style="fill:none;fill-opacity:1;stroke:#898989;stroke-width:2;stroke-linecap:round;stroke-dasharray:none;stroke-opacity:1"
         d="m -189,-84 c -3.04259,0 20,0 20,0"
         id="path56" /><path
         style="fill:none;fill-opacity:1;stroke:#898989;stroke-width:2;stroke-linecap:round;stroke-dasharray:none;stroke-opacity:1"
         d="m -164,-84 h 5"
         id="path57" /><path
         style="fill:none;fill-opacity:1;stroke:#898989;stroke-width:2;stroke-linecap:round;stroke-dasharray:none;stroke-opacity:1"
         d="m -154,-84 h 15"
         id="path58" /><path
         style="fill:none;fill-opacity:1;stroke:#898989;stroke-width:2;stroke-linecap:round;stroke-dasharray:none;stroke-opacity:1"
         d="m -189,-79 h 5"
         id="path59" /><path
         style="fill:none;fill-opacity:1;stroke:#898989;stroke-width:2;stroke-linecap:round;stroke-dasharray:none;stroke-opacity:1"
         d="m -179,-79 h 15"
         id="path60" /><path
         style="fill:none;fill-opacity:1;stroke:#898989;stroke-width:2;stroke-linecap:round;stroke-dasharray:none;stroke-opacity:1"
         d="m -159,-79 h 10.2444"
         id="path61" /><path
         style="fill:none;fill-opacity:1;stroke:#898989;stroke-width:2;stroke-linecap:round;stroke-dasharray:none;stroke-opacity:1"
         d="m -144,-79 h 5"
         id="path62" /><path
         style="fill:none;fill-opacity:1;stroke:#898989;stroke-width:2;stroke-linecap:round;stroke-dasharray:none;stroke-opacity:1"
         d="m -189,-74 h 10"
         id="path63" /><path
         style="fill:none;fill-opacity:1;stroke:#898989;stroke-width:2;stroke-linecap:round;stroke-dasharray:none;stroke-opacity:1"
         d="m -174,-74 h 20"
         id="path64" /><path
         style="fill:none;fill-opacity:1;stroke:#898989;stroke-width:2;stroke-linecap:round;stroke-dasharray:none;stroke-opacity:1"
         d="M -148.92258,-74 H -139"
         id="path65" /><path
         style="fill:none;fill-opacity:1;stroke:#898989;stroke-width:2;stroke-linecap:round;stroke-dasharray:none;stroke-opacity:1"
         d="m -189,-69 h 5"
         id="path66" /><path
         style="fill:none;fill-opacity:1;stroke:#898989;stroke-width:2;stroke-linecap:round;stroke-dasharray:none;stroke-opacity:1"
         d="m -179,-69 h 20"
         id="path67" /><path
         style="fill:none;fill-opacity:1;stroke:#898989;stroke-width:2;stroke-linecap:round;stroke-dasharray:none;stroke-opacity:1"
         d="M -153.8778,-69 H -139"
         id="path68" /></g></g></svg>
