<?xml version="1.0" encoding="UTF-8" standalone="no"?>
<!-- Created with Inkscape (http://www.inkscape.org/) -->

<svg
   width="300"
   height="300"
   viewBox="0 0 300 300"
   version="1.1"
   id="svg1"
   xml:space="preserve"
   xmlns:xlink="http://www.w3.org/1999/xlink"
   xmlns="http://www.w3.org/2000/svg"
   xmlns:svg="http://www.w3.org/2000/svg"><defs
     id="defs1" /><g
     id="layer4"
     style="display:inline;opacity:1"
     transform="translate(105.49919,-128.19728)"><path
       style="display:inline;fill:#efe0ff;fill-opacity:1;stroke:none;stroke-width:2;stroke-dasharray:none;stroke-opacity:0.501944"
       d="M 2.1279304,165.18702 C -77.690929,236.90069 -108.06615,220.67214 -97.138823,285 -86.211488,349.32786 18.997657,403.49333 47.012322,360.821 75.026987,318.14867 114.05485,348.06364 174.36922,335.40289 234.68359,322.74214 81.94679,93.473355 2.1279304,165.18702 Z"
       id="path193" /><g
       id="g181"><path
         style="fill:#57cacc;fill-opacity:1;stroke:none;stroke-width:2;stroke-dasharray:none;stroke-opacity:0.501944"
         d="m 74.608939,323.32656 c 3.529646,37.0768 8.32796,64.58465 9.297837,67.95297 0.969877,3.36832 1.660056,2.76644 2.372667,2.54163 0.712611,-0.22481 9.334589,-1.01427 10.270578,-1.11689 0.935989,-0.10262 -5.061784,-68.62357 -2.225658,-75.68477 2.836127,-7.0612 -19.715424,6.30706 -19.715424,6.30706 z"
         id="path178" /><path
         style="fill:#70d3d3;fill-opacity:1;stroke:none;stroke-width:2;stroke-dasharray:none;stroke-opacity:0.501944"
         d="m 108.02483,298.36702 c -14.121447,2.5297 -40.794021,9.20143 -44.212456,12.86042 -3.418434,3.659 -3.715316,19.42809 -4.193572,46.72784 -0.478257,27.29975 0.205678,32.40708 0.287354,34.0514 0.08168,1.64431 0.821821,1.82083 2.274097,1.95245 1.452277,0.13163 10.219599,0.75804 11.318847,0.83904 1.099249,0.081 1.022973,-4.71391 1.00171,-6.60089 -0.02126,-1.88698 1.186324,-56.65431 4.349405,-61.45699 3.16308,-4.80267 39.037655,-8.00017 39.037655,-8.00017 z"
         id="path177" /><path
         style="fill:#675821;fill-opacity:1;stroke:none;stroke-width:2;stroke-dasharray:none;stroke-opacity:0.501944"
         d="m 65.027107,392.53054 -12.886669,5.53336 c 0,0 1.156025,1.44527 11.273389,2.25047 10.117365,0.80521 10.91064,0.19188 11.225659,-0.73552 0.315019,-0.9274 -0.895418,-6.7753 -0.895418,-6.7753 z"
         id="path179" /><use
         x="0"
         y="0"
         xlink:href="#path179"
         id="use179"
         transform="rotate(-6.9638367,79.829962,208.30579)"
         style="fill:#675821;fill-opacity:1" /><path
         style="fill:#fcb284;fill-opacity:1;stroke:none;stroke-width:2;stroke-dasharray:none;stroke-opacity:0.501944"
         d="m 84.794557,164.95356 c 0,0 -3.986423,5.00069 -4.45752,9.63481 -0.471097,4.63413 2.080081,6.95023 0.586604,7.73897 -1.493477,0.78874 -5.007982,1.71831 -0.916547,4.75108 2.045716,1.51638 0.183196,4.14805 2.010993,4.17723 1.827797,0.0292 4.933606,-1.01897 7.772342,-3.05331 -3.341121,2.35637 -4.34114,3.98867 -7.544312,5.09314 0.468983,2.43294 6.105991,9.36793 12.342433,9.45489 5.90565,0.0823 7.87466,1.57425 7.91976,7.94313 9.17446,-7.79983 15.37645,-8.8837 15.37645,-8.8837 l -4.17754,-16.84856 -1.01285,-13.66989 -19.005824,-10.01642 z"
         id="path172" /><path
         style="fill:#3a2a0e;fill-opacity:1;stroke:none;stroke-width:2;stroke-dasharray:none;stroke-opacity:0.501944"
         d="m 100.58779,168.42493 c 0,0 -20.799991,2.32405 -19.600504,-4.1253 1.199486,-6.44935 18.226189,-13.84337 25.910464,-2.89578 15.43977,-5.4527 21.14256,28.95744 2.06552,32.35948 -1.73646,-5.37102 -0.12454,-4.83102 -0.12454,-4.83102 0,0 4.58546,-6.34719 -0.0651,-9.85004 -2.13335,-1.60685 -4.80099,1.05774 -5.69672,3.129 -1.18193,-0.0483 -2.52182,-0.0797 -2.52182,-0.0797 z"
         id="path173" /><use
         x="0"
         y="0"
         xlink:href="#path180"
         id="use180"
         transform="rotate(11.766661,94.917532,268.75642)"
         style="fill:#fcb284;fill-opacity:1" /><path
         style="fill:#fcb284;fill-opacity:1;stroke:none;stroke-width:2;stroke-dasharray:none;stroke-opacity:0.501944"
         d="m 66.590723,262.40411 c -8.183442,-2.54866 -17.961781,-6.99424 -20.03588,2.65775 -2.074107,9.65199 20.467308,4.48369 20.03588,-2.65775 z"
         id="path180" /><path
         style="display:inline;fill:#283b71;fill-opacity:1;stroke:none;stroke-width:2;stroke-dasharray:none;stroke-opacity:0.501944"
         d="m 109.6441,212.99236 c 0,0 -12.708053,31.69145 -20.745249,35.45373 -5.186208,2.4277 -26.173358,5.27069 -26.173358,5.27069 l -0.899254,6.74632 c 0,0 15.049593,0.85257 22.341461,-0.38567 8.248207,-1.40066 33.46456,-21.74738 33.46456,-21.74738 z"
         id="path175" /><path
         style="fill:#3e5bae;fill-opacity:1;stroke:none;stroke-width:2;stroke-dasharray:none;stroke-opacity:0.501944"
         d="m 118.37084,202.01765 c 0,0 -13.54155,7.75561 -14.98827,10.41164 -0.51791,0.95081 -2.61179,10.0388 -3.542934,14.59405 -1.291599,6.31863 -8.092678,25.45103 -17.474412,29.71283 -10.500322,4.76995 -24.758027,1.61105 -23.03879,3.03666 1.719242,1.42562 -0.109694,9.23589 3.49519,9.22758 22.008497,-0.0507 33.910052,-5.11328 38.144996,-10.19812 2.38279,19.04562 1.97188,31.27873 1.97188,31.27873 0,0 43.97019,45.12557 43.98356,1.61284 0.0134,-43.51273 -16.69265,-75.3274 -28.55122,-89.67622 z"
         id="path176" /><path
         style="fill:#ededed;fill-opacity:1;stroke:none;stroke-width:2;stroke-dasharray:none;stroke-opacity:0.501944"
         d="m 117.75624,196.7256 -16.50627,11.54295 0.69661,7.3336 16.86942,-14.30001 z"
         id="path174" /><circle
         style="fill:#654716;fill-opacity:1;stroke:none;stroke-width:2;stroke-dasharray:none;stroke-opacity:0.501944"
         id="path181"
         cx="84.965775"
         cy="180.36108"
         r="2.4239485" /></g><path
       style="fill:#bcc8ce;fill-opacity:1;stroke-width:2;stroke-opacity:0.501944"
       d="m -30.304082,285 c 0,0 16.304082,0 20.245815,0 C 5,285 5,300 5,300 v 25 h -35 z"
       id="path1" /><g
       id="g171"><path
         style="fill:#bcc8ce;fill-opacity:1;stroke:#000000;stroke-width:2;stroke-dasharray:none;stroke-opacity:0.501944"
         d="m -60,315 -15,85"
         id="path168" /><path
         style="fill:#bcc8ce;fill-opacity:1;stroke:#000000;stroke-width:2;stroke-dasharray:none;stroke-opacity:0.501944"
         d="m -50,315 15,85"
         id="path169" /><path
         style="fill:#bcc8ce;fill-opacity:1;stroke:#000000;stroke-width:2;stroke-dasharray:none;stroke-opacity:0.501944"
         d="m -20,320 -15,80"
         id="path170" /><path
         style="fill:#bcc8ce;fill-opacity:1;stroke:#000000;stroke-width:2;stroke-dasharray:none;stroke-opacity:0.501944"
         d="M -10,320 5,400"
         id="path171" /><path
         style="fill:#bcc8ce;fill-opacity:1;stroke:none;stroke-width:2;stroke-dasharray:none;stroke-opacity:0.501944"
         d="m -70,285 c -5,0 -5,5 -5,5 0,0 0,20 0,30 0,5 5,5 5,5 h 80 v -10 h -45 c 0,0 0,-10 0,-15 0,-15 -15,-15 -15,-15 0,0 -13.333333,0 -20,0 z"
         id="path167" /></g><g
       id="g191"><path
         style="fill:#654716;fill-opacity:1;stroke:none;stroke-width:2;stroke-dasharray:none;stroke-opacity:0.501944"
         d="m -23.053672,230.05179 c 2.427556,-11.82181 9.126008,-48.49123 -0.402127,-52.37265 -3.95874,-12.90313 -35.342044,-23.33504 -40.613363,21.2077 -4.541919,38.3793 -4.154435,31.01889 -4.154435,31.01889 z"
         id="path182" /><use
         x="0"
         y="0"
         xlink:href="#rect189"
         id="use189"
         transform="rotate(-12.897558,5.6042168,263.87647)"
         style="fill:#fcb284;fill-opacity:1" /><rect
         style="fill:#fcb284;fill-opacity:1;stroke:none;stroke-width:2.36601;stroke-dasharray:none;stroke-opacity:0.501944"
         id="rect189"
         width="7.2686253"
         height="15.912116"
         x="36.187733"
         y="377.40216"
         transform="matrix(0.98983624,0.14221188,-0.14060681,0.99006552,0,0)" /><use
         x="0"
         y="0"
         xlink:href="#path190"
         id="use190"
         transform="rotate(10.963738,-4.7099789,238.99065)" /><path
         style="fill:#ff2525;fill-opacity:1;stroke:none;stroke-width:2;stroke-dasharray:none;stroke-opacity:0.501944"
         d="M 9.1801264,396.43661 C 9.2337444,398.49082 7.1092584,400.9614 16,400 c 8.890738,-0.9614 21.583243,-3.81263 11.860876,-5.38603 -9.722367,-1.5734 -17.655915,-5.68675 -18.6807496,1.82264 z"
         id="path190" /><path
         style="fill:#1e3b50;fill-opacity:1;stroke:none;stroke-width:2;stroke-dasharray:none;stroke-opacity:0.501944"
         d="m -50,280 c 0,0 0,2 0,5 15,0 15,15 15,15 v 15 c 0,0 30,0 33,3 3,3 5,23 7,40 2,17 2.8773874,25.94603 2.9609152,27.87814 0.083528,1.93212 2.3593028,1.16438 2.3593028,1.16438 0,0 7.850658,-0.96343 7.449486,-1.81541 -0.401172,-0.85199 -1.316637,-32.86199 -2.22351,-41.53838 -0.906873,-8.67639 -1.258645,-32.80113 -4.593074,-35.78808 -3.3344302,-2.98696 -21.489078,-11.09058 -34.556167,-14.73431 -0.206671,-7.51177 -0.01193,-10.09111 -0.01193,-10.09111 z"
         id="path189" /><path
         style="fill:#354e61;fill-opacity:1;stroke:none;stroke-width:2;stroke-dasharray:none;stroke-opacity:0.501944"
         d="m -35,299 c 10,1 27.4662519,6.8701 30.0437644,11.04299 2.5775125,4.1729 0.6098684,40.22061 -2.2967097,59.16669 -2.9065787,18.94608 -2.7877767,18.2866 -2.7877767,18.2866 0,0 0.322484,0.59485 -2.473731,0.6988 -2.796214,0.10396 -7.539823,1.29517 -7.364827,-1.84749 0.174995,-3.14266 3.699707,-37.30688 3.763665,-44.25066 0.06396,-6.94379 1.053405,-18.92692 0.0029,-21.08337 C -17.163292,318.85711 -30,317 -35,317 c 0,-9 0,-18 0,-18 z"
         id="path188" /><path
         style="fill:#9b3333;fill-opacity:1;stroke:none;stroke-width:2;stroke-dasharray:none;stroke-opacity:0.501944"
         d="m -44.956786,214.34833 c 11.687401,1.4192 20.279559,1.97574 22.044364,4.99437 1.764804,3.01863 9.705581,15.78571 9.705581,15.78571 0,0 -9.956848,33.96771 -9.793159,51.87159 -3.287956,0.11255 -10.517946,2 -15.648527,2.76242 C -39.337524,289.01727 -42.484475,285 -50,285 h -14.479663 c 3.970389,-16.84816 6.560726,-22.4589 6.923542,-30.35884 0.362816,-7.89994 -0.389141,-15.73137 -1.171474,-17.61835 -2.049657,3.9606 -1.712154,3.45468 -2.84279,6.94953 -2.648388,-3.69161 -8.385944,-6.42775 -10.785592,-5.65588 2.710489,-9.05622 3.419053,-11.55997 4.655742,-14.89869 1.236688,-3.33873 2.963373,-8.98256 22.743449,-9.06944 z"
         id="path184" /><path
         style="fill:#fcb284;fill-opacity:1;stroke:none;stroke-width:2;stroke-dasharray:none;stroke-opacity:0.501944"
         d="m -49.402042,192.05961 c -0.845783,-4.76858 -5.895844,-5.81484 -5.784131,0.52313 0.111714,6.33798 2.672351,5.24885 4.369993,4.92249 0.02464,12.54702 -0.606494,21.48917 1.179911,25.49196 1.786405,4.00279 8.865199,13.52038 13.778909,11.58446 4.91371,-1.93592 3.281544,-9.12676 2.39391,-11.43056 -0.887633,-2.3038 -2.774614,-7.89319 -2.002069,-11.54228 6.105772,0.6281 13.388417,-3.07735 13.997948,-11.94457 0.609531,-8.86723 0.98416,-19.84486 -2.371973,-21.96505 -3.356132,-2.1202 -8.800735,0.0496 -13.521731,5.36157 -4.720996,5.31197 -12.040767,8.99885 -12.040767,8.99885 z"
         id="path183" /><path
         style="fill:#fcb284;fill-opacity:1;stroke:none;stroke-width:2;stroke-dasharray:none;stroke-opacity:0.501944"
         d="m -8.6117335,249.10712 c 6.9950928,4.75002 11.649938,1.73746 13.9078349,-1.133 2.2578969,-2.87047 9.1530886,-11.69044 13.2240536,-14.24737 4.070964,-2.55692 10.204411,-4.91269 9.858808,0.539 -0.345604,5.45169 -5.506704,5.95963 -7.549948,6.25967 -2.043245,0.30004 -2.5225,1.55488 -3.918076,3.8364 -1.395576,2.28152 -11.6296878,22.24754 -21.2117432,19.2333 -9.5820558,-3.01424 -4.3109293,-14.488 -4.3109293,-14.488 z"
         id="path185" /><path
         style="fill:#efd73e;fill-opacity:1;stroke:none;stroke-width:2;stroke-dasharray:none;stroke-opacity:0.501944"
         d="m 2.9531536,225.52644 -33.2521726,0.15997 -5.288001,42.67729 32.2713878,0.73238 z"
         id="path186" /><path
         style="fill:#fcb284;fill-opacity:1;stroke:none;stroke-width:2;stroke-dasharray:none;stroke-opacity:0.501944"
         d="m -71.980082,237.08401 c -2.50765,7.70418 -5.058078,16.47984 -5.168104,25.21611 -0.110026,8.73627 -0.718544,11.28341 11.410311,8.00963 12.128855,-3.27378 21.232331,-8.25601 23.864181,-10.15986 2.631851,-1.90386 4.85026,-0.92746 7.672125,-0.75466 2.821865,0.1728 15.870416,-2.52318 5.563404,-7.88104 -10.307013,-5.35787 -13.629312,4.37957 -26.785507,6.9858 -9.257246,1.83386 -12.615894,4.74527 -8.73587,-5.67974 2.481164,-6.66649 3.160661,-11.09459 3.160661,-11.09459 z"
         id="path187" /><path
         style="fill:#ffffff;fill-opacity:1;stroke:none;stroke-width:2;stroke-dasharray:none;stroke-opacity:0.501944"
         d="m -34,200 c 3,0 9,0 9,0 0,0 -1,3 -5,3 -4,0 -4,-3 -4,-3 z"
         id="path191" /><circle
         style="display:inline;opacity:0.5;fill:#0c90ff;fill-opacity:1;stroke:none;stroke-width:2;stroke-dasharray:none;stroke-opacity:0.501944"
         id="path181-0"
         cx="-35.484528"
         cy="191.62614"
         r="2.4239485" /><circle
         style="display:inline;opacity:0.5;fill:#0c90ff;fill-opacity:1;stroke:none;stroke-width:2;stroke-dasharray:none;stroke-opacity:0.501944"
         id="path181-5"
         cx="-25.196068"
         cy="191.69594"
         r="2.4239485" /></g><g
       id="g166"><path
         style="fill:#9aabb5;fill-opacity:1;stroke:#000000;stroke-width:2;stroke-dasharray:none;stroke-opacity:0.501944"
         d="m 140,320 15,80"
         id="path165" /><path
         style="fill:#9aabb5;fill-opacity:1;stroke:#000000;stroke-width:2;stroke-dasharray:none;stroke-opacity:0.501944"
         d="M 110,320 95,400"
         id="path166" /><path
         style="fill:#bcc8ce;fill-opacity:1;stroke:none;stroke-width:2;stroke-dasharray:none;stroke-opacity:0.501944"
         d="m 150,284.63601 c 0,0 -29.99951,0.36399 -45,0.36399 -15,0 -15,15 -15,15 0,0 0,13.33333 0,20 0,5 5,5 5,5 0,0 54,0 60,0 5,0 5,-5 5,-5 0,0 0,-33.33333 0,-50 0,-10 -10,-10 -10,0 0,4.87867 0,14.63601 0,14.63601 z"
         id="path164" /></g><g
       id="g164"
       transform="matrix(0.78431373,0,0,1,23.72549,0)"
       style="display:inline"><rect
         style="fill:#677e8d;fill-opacity:1;stroke:none;stroke-width:2;stroke-dasharray:none;stroke-opacity:0.501944"
         id="rect162"
         width="255"
         height="10"
         x="-145"
         y="270" /><rect
         style="fill:#9aabb5;fill-opacity:1;stroke:none;stroke-width:2;stroke-dasharray:none;stroke-opacity:0.501944"
         id="rect163"
         width="5.5836859"
         height="120"
         x="99.416313"
         y="280" /><rect
         style="fill:#9aabb5;fill-opacity:1;stroke:none;stroke-width:2;stroke-dasharray:none;stroke-opacity:0.501944"
         id="rect164"
         width="5"
         height="120"
         x="-140"
         y="280" /></g><path
       style="fill:#828282;fill-opacity:1;stroke:none;stroke-width:2;stroke-dasharray:none;stroke-opacity:0.501944"
       d="m 36,230 10,35 h 30 v 5 H 43 L 32,231 Z"
       id="path192" /></g></svg>
